<?xml version="1.0" encoding="UTF-8"?>
<svg xmlns="http://www.w3.org/2000/svg" xmlns:xlink="http://www.w3.org/1999/xlink" width="48pt" height="48pt" viewBox="0 0 48 48" version="1.2">
<defs>
<clipPath id="clip1">
  <path d="M 0.488281 0 L 47.507812 0 L 47.507812 47.019531 L 0.488281 47.019531 Z M 0.488281 0 "/>
</clipPath>
<clipPath id="clip2">
  <path d="M 0.488281 5.347656 L 47.507812 5.347656 L 47.507812 41.03125 L 0.488281 41.03125 Z M 0.488281 5.347656 "/>
</clipPath>
</defs>
<g id="surface1">
<g clip-path="url(#clip1)" clip-rule="nonzero">
<path style=" stroke:none;fill-rule:nonzero;fill:rgb(100%,100%,100%);fill-opacity:1;" d="M 0.488281 0 L 47.511719 0 L 47.511719 47.019531 L 0.488281 47.019531 Z M 0.488281 0 "/>
<path style=" stroke:none;fill-rule:nonzero;fill:rgb(100%,100%,100%);fill-opacity:1;" d="M 0.488281 0 L 47.511719 0 L 47.511719 47.019531 L 0.488281 47.019531 Z M 0.488281 0 "/>
</g>
<g clip-path="url(#clip2)" clip-rule="nonzero">
<path style=" stroke:none;fill-rule:nonzero;fill:rgb(0%,0%,0%);fill-opacity:1;" d="M 46.011719 5.347656 L 1.988281 5.347656 C 1.179688 5.347656 0.519531 5.996094 0.519531 6.789062 L 0.519531 35.625 C 0.519531 36.417969 1.179688 37.066406 1.988281 37.066406 L 21.433594 37.066406 L 21.433594 40.308594 L 18.496094 40.308594 C 18.292969 40.308594 18.128906 40.46875 18.128906 40.667969 C 18.128906 40.867188 18.292969 41.03125 18.496094 41.03125 L 29.503906 41.03125 C 29.707031 41.03125 29.871094 40.867188 29.871094 40.667969 C 29.871094 40.46875 29.707031 40.308594 29.503906 40.308594 L 26.566406 40.308594 L 26.566406 37.066406 L 46.011719 37.066406 C 46.820312 37.066406 47.480469 36.417969 47.480469 35.625 L 47.480469 6.789062 C 47.480469 5.996094 46.820312 5.347656 46.011719 5.347656 Z M 25.835938 40.308594 L 22.164062 40.308594 L 22.164062 37.066406 L 25.835938 37.066406 Z M 46.746094 35.625 C 46.746094 36.019531 46.417969 36.34375 46.011719 36.34375 L 1.988281 36.34375 C 1.582031 36.34375 1.253906 36.019531 1.253906 35.625 L 1.253906 33.820312 L 46.746094 33.820312 Z M 46.746094 33.101562 L 1.253906 33.101562 L 1.253906 8.953125 L 46.746094 8.953125 Z M 46.746094 8.230469 L 1.253906 8.230469 L 1.253906 6.789062 C 1.253906 6.394531 1.582031 6.070312 1.988281 6.070312 L 46.011719 6.070312 C 46.417969 6.070312 46.746094 6.394531 46.746094 6.789062 Z M 46.746094 8.230469 "/>
</g>
<path style=" stroke:none;fill-rule:nonzero;fill:rgb(0%,0%,0%);fill-opacity:1;" d="M 3.085938 11.835938 L 10.246094 11.835938 C 10.449219 11.835938 10.613281 11.675781 10.613281 11.476562 C 10.613281 11.277344 10.449219 11.117188 10.246094 11.117188 L 3.085938 11.117188 C 2.886719 11.117188 2.722656 11.277344 2.722656 11.476562 C 2.722656 11.675781 2.886719 11.835938 3.085938 11.835938 Z M 3.085938 11.835938 "/>
<path style=" stroke:none;fill-rule:nonzero;fill:rgb(0%,0%,0%);fill-opacity:1;" d="M 6.476562 12.917969 C 6.476562 13.117188 6.640625 13.277344 6.839844 13.277344 L 14.75 13.277344 C 14.953125 13.277344 15.117188 13.117188 15.117188 12.917969 C 15.117188 12.71875 14.953125 12.558594 14.75 12.558594 L 6.839844 12.558594 C 6.640625 12.558594 6.476562 12.71875 6.476562 12.917969 Z M 6.476562 12.917969 "/>
<path style=" stroke:none;fill-rule:nonzero;fill:rgb(0%,0%,0%);fill-opacity:1;" d="M 3.085938 14.71875 L 9.46875 14.71875 C 9.671875 14.71875 9.835938 14.558594 9.835938 14.359375 C 9.835938 14.160156 9.671875 14 9.46875 14 L 3.085938 14 C 2.886719 14 2.722656 14.160156 2.722656 14.359375 C 2.722656 14.558594 2.886719 14.71875 3.085938 14.71875 Z M 3.085938 14.71875 "/>
<path style=" stroke:none;fill-rule:nonzero;fill:rgb(0%,0%,0%);fill-opacity:1;" d="M 3.085938 16.160156 L 10.621094 16.160156 C 10.824219 16.160156 10.988281 16 10.988281 15.800781 C 10.988281 15.601562 10.824219 15.441406 10.621094 15.441406 L 3.085938 15.441406 C 2.886719 15.441406 2.722656 15.601562 2.722656 15.800781 C 2.722656 16 2.886719 16.160156 3.085938 16.160156 Z M 3.085938 16.160156 "/>
<path style=" stroke:none;fill-rule:nonzero;fill:rgb(0%,0%,0%);fill-opacity:1;" d="M 5.722656 17.242188 C 5.722656 17.441406 5.886719 17.601562 6.089844 17.601562 L 15.878906 17.601562 C 16.082031 17.601562 16.246094 17.441406 16.246094 17.242188 C 16.246094 17.042969 16.082031 16.882812 15.878906 16.882812 L 6.089844 16.882812 C 5.886719 16.882812 5.722656 17.042969 5.722656 17.242188 Z M 5.722656 17.242188 "/>
<path style=" stroke:none;fill-rule:nonzero;fill:rgb(0%,0%,0%);fill-opacity:1;" d="M 14 18.324219 L 4.964844 18.324219 C 4.761719 18.324219 4.597656 18.484375 4.597656 18.683594 C 4.597656 18.882812 4.761719 19.042969 4.964844 19.042969 L 14 19.042969 C 14.203125 19.042969 14.367188 18.882812 14.367188 18.683594 C 14.367188 18.484375 14.203125 18.324219 14 18.324219 Z M 14 18.324219 "/>
<path style=" stroke:none;fill-rule:nonzero;fill:rgb(0%,0%,0%);fill-opacity:1;" d="M 3.085938 20.484375 L 12.097656 20.484375 C 12.300781 20.484375 12.464844 20.324219 12.464844 20.125 C 12.464844 19.925781 12.300781 19.765625 12.097656 19.765625 L 3.085938 19.765625 C 2.886719 19.765625 2.722656 19.925781 2.722656 20.125 C 2.722656 20.324219 2.886719 20.484375 3.085938 20.484375 Z M 3.085938 20.484375 "/>
<path style=" stroke:none;fill-rule:nonzero;fill:rgb(0%,0%,0%);fill-opacity:1;" d="M 7.601562 21.566406 C 7.601562 21.765625 7.765625 21.929688 7.96875 21.929688 L 14.375 21.929688 C 14.578125 21.929688 14.742188 21.765625 14.742188 21.566406 C 14.742188 21.367188 14.578125 21.207031 14.375 21.207031 L 7.96875 21.207031 C 7.765625 21.207031 7.601562 21.367188 7.601562 21.566406 Z M 7.601562 21.566406 "/>
<path style=" stroke:none;fill-rule:nonzero;fill:rgb(0%,0%,0%);fill-opacity:1;" d="M 8.34375 23.371094 L 12.097656 23.371094 C 12.300781 23.371094 12.464844 23.207031 12.464844 23.007812 C 12.464844 22.808594 12.300781 22.648438 12.097656 22.648438 L 8.34375 22.648438 C 8.140625 22.648438 7.976562 22.808594 7.976562 23.007812 C 7.976562 23.207031 8.140625 23.371094 8.34375 23.371094 Z M 8.34375 23.371094 "/>
<path style=" stroke:none;fill-rule:nonzero;fill:rgb(0%,0%,0%);fill-opacity:1;" d="M 3.085938 24.8125 L 12.097656 24.8125 C 12.300781 24.8125 12.464844 24.648438 12.464844 24.449219 C 12.464844 24.25 12.300781 24.089844 12.097656 24.089844 L 3.085938 24.089844 C 2.886719 24.089844 2.722656 24.25 2.722656 24.449219 C 2.722656 24.648438 2.886719 24.8125 3.085938 24.8125 Z M 3.085938 24.8125 "/>
<path style=" stroke:none;fill-rule:nonzero;fill:rgb(0%,0%,0%);fill-opacity:1;" d="M 3.085938 26.253906 L 11.722656 26.253906 C 11.925781 26.253906 12.089844 26.089844 12.089844 25.890625 C 12.089844 25.691406 11.925781 25.53125 11.722656 25.53125 L 3.085938 25.53125 C 2.886719 25.53125 2.722656 25.691406 2.722656 25.890625 C 2.722656 26.089844 2.886719 26.253906 3.085938 26.253906 Z M 3.085938 26.253906 "/>
<path style=" stroke:none;fill-rule:nonzero;fill:rgb(0%,0%,0%);fill-opacity:1;" d="M 18.128906 26.972656 L 10.21875 26.972656 C 10.019531 26.972656 9.851562 27.136719 9.851562 27.335938 C 9.851562 27.535156 10.019531 27.695312 10.21875 27.695312 L 18.128906 27.695312 C 18.332031 27.695312 18.496094 27.535156 18.496094 27.335938 C 18.496094 27.136719 18.332031 26.972656 18.128906 26.972656 Z M 18.128906 26.972656 "/>
<path style=" stroke:none;fill-rule:nonzero;fill:rgb(0%,0%,0%);fill-opacity:1;" d="M 3.085938 29.136719 L 12.097656 29.136719 C 12.300781 29.136719 12.464844 28.976562 12.464844 28.777344 C 12.464844 28.578125 12.300781 28.414062 12.097656 28.414062 L 3.085938 28.414062 C 2.886719 28.414062 2.722656 28.578125 2.722656 28.777344 C 2.722656 28.976562 2.886719 29.136719 3.085938 29.136719 Z M 3.085938 29.136719 "/>
<path style=" stroke:none;fill-rule:nonzero;fill:rgb(0%,0%,0%);fill-opacity:1;" d="M 17.003906 29.855469 L 9.09375 29.855469 C 8.890625 29.855469 8.726562 30.019531 8.726562 30.21875 C 8.726562 30.417969 8.890625 30.578125 9.09375 30.578125 L 17.003906 30.578125 C 17.207031 30.578125 17.371094 30.417969 17.371094 30.21875 C 17.371094 30.019531 17.207031 29.855469 17.003906 29.855469 Z M 17.003906 29.855469 "/>
<path style=" stroke:none;fill-rule:nonzero;fill:rgb(0%,0%,0%);fill-opacity:1;" d="M 36.652344 11.835938 L 44.914062 11.835938 C 45.113281 11.835938 45.277344 11.675781 45.277344 11.476562 C 45.277344 11.277344 45.113281 11.117188 44.914062 11.117188 L 36.652344 11.117188 C 36.449219 11.117188 36.285156 11.277344 36.285156 11.476562 C 36.285156 11.675781 36.449219 11.835938 36.652344 11.835938 Z M 36.652344 11.835938 "/>
<path style=" stroke:none;fill-rule:nonzero;fill:rgb(0%,0%,0%);fill-opacity:1;" d="M 33.25 13.277344 L 41.160156 13.277344 C 41.359375 13.277344 41.523438 13.117188 41.523438 12.917969 C 41.523438 12.71875 41.359375 12.558594 41.160156 12.558594 L 33.25 12.558594 C 33.046875 12.558594 32.882812 12.71875 32.882812 12.917969 C 32.882812 13.117188 33.046875 13.277344 33.25 13.277344 Z M 33.25 13.277344 "/>
<path style=" stroke:none;fill-rule:nonzero;fill:rgb(0%,0%,0%);fill-opacity:1;" d="M 44.914062 14 L 38.53125 14 C 38.328125 14 38.164062 14.160156 38.164062 14.359375 C 38.164062 14.558594 38.328125 14.71875 38.53125 14.71875 L 44.914062 14.71875 C 45.113281 14.71875 45.277344 14.558594 45.277344 14.359375 C 45.277344 14.160156 45.113281 14 44.914062 14 Z M 44.914062 14 "/>
<path style=" stroke:none;fill-rule:nonzero;fill:rgb(0%,0%,0%);fill-opacity:1;" d="M 44.914062 15.441406 L 36.277344 15.441406 C 36.074219 15.441406 35.910156 15.601562 35.910156 15.800781 C 35.910156 16 36.074219 16.160156 36.277344 16.160156 L 44.914062 16.160156 C 45.113281 16.160156 45.277344 16 45.277344 15.800781 C 45.277344 15.601562 45.113281 15.441406 44.914062 15.441406 Z M 44.914062 15.441406 "/>
<path style=" stroke:none;fill-rule:nonzero;fill:rgb(0%,0%,0%);fill-opacity:1;" d="M 32.121094 17.601562 L 41.910156 17.601562 C 42.113281 17.601562 42.277344 17.441406 42.277344 17.242188 C 42.277344 17.042969 42.113281 16.882812 41.910156 16.882812 L 32.121094 16.882812 C 31.917969 16.882812 31.753906 17.042969 31.753906 17.242188 C 31.753906 17.441406 31.917969 17.601562 32.121094 17.601562 Z M 32.121094 17.601562 "/>
<path style=" stroke:none;fill-rule:nonzero;fill:rgb(0%,0%,0%);fill-opacity:1;" d="M 43.035156 19.042969 C 43.238281 19.042969 43.402344 18.882812 43.402344 18.683594 C 43.402344 18.484375 43.238281 18.324219 43.035156 18.324219 L 34 18.324219 C 33.796875 18.324219 33.632812 18.484375 33.632812 18.683594 C 33.632812 18.882812 33.796875 19.042969 34 19.042969 Z M 43.035156 19.042969 "/>
<path style=" stroke:none;fill-rule:nonzero;fill:rgb(0%,0%,0%);fill-opacity:1;" d="M 44.914062 19.765625 L 35.902344 19.765625 C 35.699219 19.765625 35.535156 19.925781 35.535156 20.125 C 35.535156 20.324219 35.699219 20.484375 35.902344 20.484375 L 44.914062 20.484375 C 45.113281 20.484375 45.277344 20.324219 45.277344 20.125 C 45.277344 19.925781 45.113281 19.765625 44.914062 19.765625 Z M 44.914062 19.765625 "/>
<path style=" stroke:none;fill-rule:nonzero;fill:rgb(0%,0%,0%);fill-opacity:1;" d="M 33.257812 21.566406 C 33.257812 21.765625 33.421875 21.929688 33.625 21.929688 L 40.03125 21.929688 C 40.234375 21.929688 40.398438 21.765625 40.398438 21.566406 C 40.398438 21.367188 40.234375 21.207031 40.03125 21.207031 L 33.625 21.207031 C 33.421875 21.207031 33.257812 21.367188 33.257812 21.566406 Z M 33.257812 21.566406 "/>
<path style=" stroke:none;fill-rule:nonzero;fill:rgb(0%,0%,0%);fill-opacity:1;" d="M 35.902344 22.648438 C 35.699219 22.648438 35.535156 22.808594 35.535156 23.007812 C 35.535156 23.207031 35.699219 23.371094 35.902344 23.371094 L 39.65625 23.371094 C 39.859375 23.371094 40.023438 23.207031 40.023438 23.007812 C 40.023438 22.808594 39.859375 22.648438 39.65625 22.648438 Z M 35.902344 22.648438 "/>
<path style=" stroke:none;fill-rule:nonzero;fill:rgb(0%,0%,0%);fill-opacity:1;" d="M 44.914062 24.089844 L 35.902344 24.089844 C 35.699219 24.089844 35.535156 24.25 35.535156 24.449219 C 35.535156 24.648438 35.699219 24.8125 35.902344 24.8125 L 44.914062 24.8125 C 45.113281 24.8125 45.277344 24.648438 45.277344 24.449219 C 45.277344 24.25 45.113281 24.089844 44.914062 24.089844 Z M 44.914062 24.089844 "/>
<path style=" stroke:none;fill-rule:nonzero;fill:rgb(0%,0%,0%);fill-opacity:1;" d="M 44.914062 25.53125 L 36.277344 25.53125 C 36.074219 25.53125 35.910156 25.691406 35.910156 25.890625 C 35.910156 26.089844 36.074219 26.253906 36.277344 26.253906 L 44.914062 26.253906 C 45.113281 26.253906 45.277344 26.089844 45.277344 25.890625 C 45.277344 25.691406 45.113281 25.53125 44.914062 25.53125 Z M 44.914062 25.53125 "/>
<path style=" stroke:none;fill-rule:nonzero;fill:rgb(0%,0%,0%);fill-opacity:1;" d="M 38.148438 27.335938 C 38.148438 27.136719 37.980469 26.972656 37.78125 26.972656 L 29.871094 26.972656 C 29.667969 26.972656 29.503906 27.136719 29.503906 27.335938 C 29.503906 27.535156 29.667969 27.695312 29.871094 27.695312 L 37.78125 27.695312 C 37.980469 27.695312 38.148438 27.535156 38.148438 27.335938 Z M 38.148438 27.335938 "/>
<path style=" stroke:none;fill-rule:nonzero;fill:rgb(0%,0%,0%);fill-opacity:1;" d="M 44.914062 28.414062 L 35.902344 28.414062 C 35.699219 28.414062 35.535156 28.578125 35.535156 28.777344 C 35.535156 28.976562 35.699219 29.136719 35.902344 29.136719 L 44.914062 29.136719 C 45.113281 29.136719 45.277344 28.976562 45.277344 28.777344 C 45.277344 28.578125 45.113281 28.414062 44.914062 28.414062 Z M 44.914062 28.414062 "/>
<path style=" stroke:none;fill-rule:nonzero;fill:rgb(0%,0%,0%);fill-opacity:1;" d="M 38.90625 29.855469 L 30.996094 29.855469 C 30.792969 29.855469 30.628906 30.019531 30.628906 30.21875 C 30.628906 30.417969 30.792969 30.578125 30.996094 30.578125 L 38.90625 30.578125 C 39.109375 30.578125 39.273438 30.417969 39.273438 30.21875 C 39.273438 30.019531 39.109375 29.855469 38.90625 29.855469 Z M 38.90625 29.855469 "/>
<path style=" stroke:none;fill-rule:nonzero;fill:rgb(0%,0%,0%);fill-opacity:1;" d="M 43.8125 7.152344 C 43.8125 7.25 43.777344 7.335938 43.703125 7.40625 C 43.632812 7.476562 43.546875 7.511719 43.445312 7.511719 C 43.34375 7.511719 43.257812 7.476562 43.1875 7.40625 C 43.113281 7.335938 43.078125 7.25 43.078125 7.152344 C 43.078125 7.050781 43.113281 6.964844 43.1875 6.894531 C 43.257812 6.824219 43.34375 6.789062 43.445312 6.789062 C 43.546875 6.789062 43.632812 6.824219 43.703125 6.894531 C 43.777344 6.964844 43.8125 7.050781 43.8125 7.152344 Z M 43.8125 7.152344 "/>
<path style=" stroke:none;fill-rule:nonzero;fill:rgb(0%,0%,0%);fill-opacity:1;" d="M 42.34375 7.152344 C 42.34375 7.25 42.308594 7.335938 42.238281 7.40625 C 42.164062 7.476562 42.078125 7.511719 41.976562 7.511719 C 41.875 7.511719 41.789062 7.476562 41.71875 7.40625 C 41.648438 7.335938 41.609375 7.25 41.609375 7.152344 C 41.609375 7.050781 41.648438 6.964844 41.71875 6.894531 C 41.789062 6.824219 41.875 6.789062 41.976562 6.789062 C 42.078125 6.789062 42.164062 6.824219 42.238281 6.894531 C 42.308594 6.964844 42.34375 7.050781 42.34375 7.152344 Z M 42.34375 7.152344 "/>
<path style=" stroke:none;fill-rule:nonzero;fill:rgb(0%,0%,0%);fill-opacity:1;" d="M 40.878906 7.152344 C 40.878906 7.25 40.839844 7.335938 40.769531 7.40625 C 40.699219 7.476562 40.613281 7.511719 40.511719 7.511719 C 40.410156 7.511719 40.324219 7.476562 40.25 7.40625 C 40.179688 7.335938 40.144531 7.25 40.144531 7.152344 C 40.144531 7.050781 40.179688 6.964844 40.25 6.894531 C 40.324219 6.824219 40.410156 6.789062 40.511719 6.789062 C 40.613281 6.789062 40.699219 6.824219 40.769531 6.894531 C 40.839844 6.964844 40.878906 7.050781 40.878906 7.152344 Z M 40.878906 7.152344 "/>
<path style=" stroke:none;fill-rule:nonzero;fill:rgb(0%,0%,0%);fill-opacity:1;" d="M 22.429688 25.15625 C 22.464844 25.167969 22.496094 25.171875 22.53125 25.171875 C 22.691406 25.171875 22.835938 25.070312 22.882812 24.910156 L 25.195312 16.980469 C 25.253906 16.789062 25.140625 16.589844 24.945312 16.535156 C 24.75 16.480469 24.546875 16.589844 24.492188 16.78125 L 22.179688 24.710938 C 22.121094 24.902344 22.234375 25.101562 22.429688 25.15625 Z M 22.429688 25.15625 "/>
<path style=" stroke:none;fill-rule:nonzero;fill:rgb(0%,0%,0%);fill-opacity:1;" d="M 17.550781 21.5 L 20.859375 23.820312 C 20.925781 23.867188 21 23.886719 21.074219 23.886719 C 21.1875 23.886719 21.300781 23.835938 21.371094 23.738281 C 21.488281 23.574219 21.453125 23.347656 21.285156 23.234375 L 18.394531 21.207031 L 21.285156 19.179688 C 21.453125 19.066406 21.488281 18.839844 21.371094 18.679688 C 21.253906 18.515625 21.027344 18.480469 20.859375 18.59375 L 17.550781 20.914062 C 17.453125 20.980469 17.394531 21.089844 17.394531 21.207031 C 17.394531 21.324219 17.453125 21.433594 17.550781 21.5 Z M 17.550781 21.5 "/>
<path style=" stroke:none;fill-rule:nonzero;fill:rgb(0%,0%,0%);fill-opacity:1;" d="M 26.628906 23.738281 C 26.699219 23.835938 26.8125 23.886719 26.925781 23.886719 C 27 23.886719 27.074219 23.867188 27.140625 23.820312 L 30.449219 21.5 C 30.546875 21.433594 30.605469 21.324219 30.605469 21.207031 C 30.605469 21.089844 30.546875 20.980469 30.449219 20.914062 L 27.140625 18.59375 C 26.972656 18.480469 26.746094 18.515625 26.628906 18.679688 C 26.511719 18.839844 26.546875 19.066406 26.714844 19.179688 L 29.605469 21.207031 L 26.714844 23.234375 C 26.546875 23.347656 26.511719 23.574219 26.628906 23.738281 Z M 26.628906 23.738281 "/>
</g>
</svg>
