<?xml version="1.0" encoding="UTF-8"?>
<svg xmlns="http://www.w3.org/2000/svg" xmlns:xlink="http://www.w3.org/1999/xlink" width="48pt" height="48pt" viewBox="0 0 48 48" version="1.2">
<defs>
<clipPath id="clip1">
  <path d="M 5 0 L 44.570312 0 L 44.570312 47 L 5 47 Z M 5 0 "/>
</clipPath>
</defs>
<g id="surface1">
<g clip-path="url(#clip1)" clip-rule="nonzero">
<path style=" stroke:none;fill-rule:evenodd;fill:rgb(0%,76.078796%,79.60968%);fill-opacity:1;" d="M 15.5625 19.152344 C 15.042969 18.484375 14.578125 17.882812 14.246094 17.453125 C 13.851562 17.792969 13.484375 18.074219 13.226562 18.363281 C 12.832031 18.800781 12.460938 18.757812 12.410156 18.371094 C 12.144531 16.347656 12.03125 15.648438 11.605469 13.890625 C 11.507812 13.488281 12.011719 13.273438 12.371094 13.453125 C 13.347656 13.941406 13.945312 14.234375 16.175781 15.148438 C 16.511719 15.285156 16.550781 15.625 16.226562 15.859375 C 15.890625 16.105469 15.542969 16.339844 14.933594 16.863281 C 15.285156 17.316406 15.761719 17.941406 16.296875 18.632812 C 17.148438 17.886719 17.734375 16.796875 17.824219 15.464844 C 17.820312 15.386719 17.832031 15.3125 17.847656 15.242188 C 17.351562 10.902344 12.925781 11.027344 10.699219 12.992188 C 9.71875 13.855469 9.199219 15.296875 9.324219 16.515625 C 9.421875 17.472656 10.222656 18.832031 11.714844 19.417969 C 13.03125 19.933594 14.433594 19.792969 15.5625 19.152344 M 33.257812 16.960938 C 33.589844 16.460938 33.9375 15.941406 34.292969 15.410156 L 33.132812 14.496094 C 32.878906 14.53125 32.636719 14.378906 32.566406 14.125 C 32.496094 13.855469 32.652344 13.578125 32.925781 13.503906 C 34.867188 12.757812 35.132812 12.628906 36.914062 12.078125 C 37.183594 11.996094 37.519531 12.261719 37.464844 12.539062 C 37.292969 13.421875 36.957031 15.320312 36.894531 16.628906 C 36.878906 17.011719 36.476562 17.136719 36.1875 16.898438 C 35.945312 16.695312 35.136719 16.078125 34.832031 15.839844 C 34.511719 16.351562 34.191406 16.851562 33.871094 17.34375 C 34.761719 17.761719 35.972656 17.816406 37.535156 17.257812 C 40.214844 16.296875 39.960938 12.625 38.289062 11.25 C 35.84375 9.242188 33.847656 10.042969 33.152344 10.734375 C 32.476562 11.402344 32.011719 12.742188 31.964844 13.730469 C 31.90625 14.945312 32.320312 16.203125 33.257812 16.960938 Z M 29.996094 21.492188 C 27.871094 20.789062 25.617188 20.375 23.507812 20.65625 C 21.847656 20.878906 20.28125 21.378906 18.933594 22.027344 C 19.410156 22.636719 19.832031 23.167969 20.136719 23.542969 C 20.699219 24.234375 19.800781 24.597656 19.421875 24.117188 C 19.097656 23.707031 18.640625 23.121094 18.121094 22.453125 C 16 23.660156 14.605469 25.222656 14.59375 26.527344 C 14.574219 28.34375 17.40625 29.316406 20.21875 29.796875 C 20.292969 29.664062 20.371094 29.523438 20.449219 29.378906 C 20.601562 29.179688 20.882812 29.148438 21.078125 29.296875 C 21.273438 29.445312 21.3125 29.730469 21.160156 29.925781 L 21.152344 29.9375 C 22.753906 30.15625 24.238281 30.21875 25.058594 30.199219 C 26.945312 30.152344 28.535156 29.902344 29.824219 29.527344 C 29.671875 29.300781 29.535156 29.105469 29.421875 28.941406 C 29.300781 28.78125 29.335938 28.546875 29.5 28.425781 C 29.660156 28.308594 29.890625 28.339844 30.011719 28.503906 C 30.210938 28.78125 30.394531 29.039062 30.570312 29.285156 C 32.847656 28.464844 34 27.234375 34.027344 26.179688 C 34.0625 24.796875 32.800781 23.628906 30.324219 22.964844 C 30.179688 23.074219 29.976562 23.074219 29.832031 22.957031 C 29.78125 22.917969 29.746094 22.871094 29.722656 22.820312 C 27.714844 22.378906 25.023438 22.238281 21.679688 22.519531 C 21.332031 22.566406 21.011719 22.324219 20.964844 21.976562 C 20.914062 21.628906 21.160156 21.308594 21.507812 21.261719 C 24.226562 20.957031 27.292969 20.941406 29.996094 21.492188 Z M 19.378906 5.734375 C 21.140625 2.902344 26.203125 1.34375 28.410156 6.191406 C 30.3125 10.375 27.289062 12.535156 24.148438 12.640625 C 24.164062 14.101562 24.214844 15.453125 24.296875 16.277344 C 24.785156 16.308594 25.523438 16.3125 25.933594 16.238281 C 26.035156 16.179688 26.15625 16.164062 26.261719 16.199219 C 26.457031 16.265625 26.542969 16.488281 26.453125 16.691406 C 25.964844 17.609375 25.40625 18.46875 24.953125 19.324219 C 26.914062 19.296875 28.957031 19.648438 30.945312 20.523438 C 31.410156 19.796875 31.984375 18.902344 32.636719 17.90625 C 30.128906 16.152344 30.445312 11.828125 32.390625 10.101562 C 34.359375 8.359375 37.386719 9.238281 38.734375 10.472656 C 41.023438 12.578125 42 17.195312 37.332031 18.382812 C 35.613281 18.820312 34.277344 18.710938 33.277344 18.265625 C 32.707031 19.144531 32.152344 20 31.628906 20.839844 C 31.753906 20.90625 31.882812 20.972656 32.007812 21.039062 C 32.296875 21.25 32.363281 21.652344 32.152344 21.945312 C 32.117188 21.996094 32.070312 22.042969 32.019531 22.082031 C 34.65625 23.113281 35.71875 24.648438 35.496094 26.175781 C 35.269531 27.710938 33.757812 29.238281 31.242188 30.25 C 31.675781 30.871094 32.019531 31.386719 32.320312 31.839844 C 34.929688 30.488281 38.410156 30.75 40.226562 34.742188 C 43.683594 42.339844 33.199219 44.214844 29.972656 40.222656 C 28.769531 38.738281 28.71875 35.792969 29.703125 34.210938 C 30.171875 33.453125 30.847656 32.773438 31.640625 32.242188 C 31.226562 31.625 30.839844 31.042969 30.496094 30.527344 C 28.921875 31.054688 27.019531 31.390625 24.84375 31.433594 C 23.769531 31.453125 22.03125 31.398438 20.21875 31.136719 C 19.84375 31.617188 19.367188 32.25 18.789062 33.066406 C 21.578125 35.347656 21.253906 40.964844 17.703125 41.992188 C 14.675781 42.867188 10.480469 42.152344 9.820312 38.546875 C 9.433594 36.417969 9.996094 34.136719 12.378906 32.53125 C 13.023438 32.097656 13.210938 32.9375 12.941406 33.160156 C 11.121094 34.667969 9.953125 37.347656 11.46875 39.582031 C 12.824219 41.574219 15.359375 41.699219 17.234375 41.113281 C 20.296875 40.152344 20.441406 35.730469 18.242188 33.84375 C 17.804688 34.484375 17.324219 35.210938 16.796875 36.039062 L 18.132812 37.039062 C 18.414062 36.988281 18.695312 37.15625 18.78125 37.4375 C 18.871094 37.738281 18.699219 38.058594 18.394531 38.148438 C 16.226562 39.046875 15.933594 39.199219 13.941406 39.875 C 13.640625 39.972656 13.253906 39.683594 13.304688 39.371094 C 13.472656 38.367188 13.796875 36.222656 13.828125 34.746094 C 13.835938 34.3125 14.285156 34.160156 14.617188 34.421875 C 14.898438 34.640625 15.828125 35.316406 16.175781 35.574219 C 16.699219 34.691406 17.171875 34.007812 17.617188 33.414062 C 17.355469 33.277344 17.074219 33.164062 16.765625 33.09375 C 15.230469 32.726562 14.546875 33.140625 13.410156 34.085938 C 13.054688 34.382812 12.375 34.023438 12.8125 33.558594 C 13.78125 32.535156 15.125 31.773438 17.050781 32.214844 C 17.46875 32.3125 17.851562 32.460938 18.199219 32.660156 C 18.628906 32.113281 19.039062 31.605469 19.449219 31.015625 C 16.261719 30.453125 13.125 29.207031 13.253906 26.585938 C 13.34375 24.816406 14.929688 22.875 17.335938 21.445312 C 17 21.011719 16.652344 20.5625 16.3125 20.125 C 14.324219 21.394531 11.65625 21.214844 10.085938 19.617188 C 3.433594 12.855469 17.703125 5.925781 18.789062 15.132812 C 18.839844 15.238281 18.871094 15.355469 18.871094 15.480469 C 18.75 17.300781 18.03125 18.667969 17.027344 19.578125 C 17.394531 20.054688 17.769531 20.539062 18.132812 21.007812 C 19.734375 20.191406 21.621094 19.601562 23.636719 19.398438 C 23.066406 18.539062 21.945312 16.851562 21.90625 16.785156 C 21.8125 16.617188 21.886719 16.386719 22.066406 16.277344 C 22.207031 16.191406 22.371094 16.203125 22.484375 16.289062 C 22.75 16.257812 23.296875 16.261719 23.523438 16.257812 C 23.449219 15.386719 23.40625 14.035156 23.386719 12.628906 C 21.894531 12.519531 20.460938 11.945312 19.609375 10.894531 C 18.578125 9.617188 18.535156 7.09375 19.378906 5.734375 Z M 22.582031 11.464844 C 22.84375 11.511719 23.109375 11.539062 23.378906 11.546875 C 23.375 10.390625 23.386719 9.261719 23.414062 8.40625 C 23.417969 8.195312 23.621094 8.015625 23.828125 8.011719 C 24.042969 8.007812 24.191406 8.175781 24.183594 8.386719 C 24.152344 9.320312 24.136719 10.425781 24.140625 11.53125 C 26.875 11.304688 29.445312 9.316406 26.90625 5.804688 C 24.660156 2.699219 20.289062 4.71875 19.859375 7.804688 C 19.59375 9.710938 20.714844 11.136719 22.582031 11.464844 Z M 33.433594 40.890625 C 37.074219 41.527344 42 39.167969 38.472656 34.292969 C 37.027344 32.292969 34.824219 32.117188 33.058594 32.96875 C 33.554688 33.734375 33.996094 34.429688 34.6875 35.433594 C 35.394531 34.933594 35.714844 34.734375 36.132812 34.480469 C 36.191406 34.289062 36.386719 34.171875 36.582031 34.214844 C 36.789062 34.261719 36.917969 34.464844 36.871094 34.671875 C 36.664062 36.464844 36.726562 37.066406 36.683594 39.144531 C 36.679688 39.410156 36.484375 39.679688 36.160156 39.496094 C 34.90625 38.785156 33.8125 38.152344 32.550781 37.714844 C 32.242188 37.605469 32.175781 37.25 32.421875 37.039062 C 32.554688 36.921875 33.832031 36.03125 34.085938 35.855469 C 33.527344 35.050781 32.945312 34.191406 32.382812 33.355469 C 31.28125 34.105469 30.449219 35.277344 30.257812 36.625 C 29.949219 38.84375 31.257812 40.507812 33.433594 40.890625 Z M 10.964844 2.207031 L 8.394531 4.445312 L 11.078125 4.332031 Z M 11.628906 0.0351562 L 43.335938 0.238281 C 43.363281 0.238281 43.394531 0.238281 43.421875 0.238281 C 43.808594 0.265625 44.101562 0.597656 44.078125 0.984375 C 43.597656 8.589844 43.367188 16.121094 43.433594 23.5625 C 43.5 31.007812 43.863281 38.375 44.566406 45.648438 C 44.570312 45.667969 44.570312 45.6875 44.570312 45.707031 C 44.574219 46.09375 44.265625 46.410156 43.878906 46.414062 L 6.878906 46.96875 C 6.507812 46.984375 6.183594 46.710938 6.148438 46.335938 C 5.46875 39.359375 5.09375 32.4375 5.019531 25.570312 C 4.949219 18.703125 5.179688 11.90625 5.722656 5.191406 C 5.734375 5.007812 5.8125 4.828125 5.964844 4.699219 L 11.125 0.203125 L 11.128906 0.203125 C 11.242188 0.105469 11.390625 0.0429688 11.550781 0.0351562 C 11.578125 0.03125 11.601562 0.03125 11.628906 0.0351562 Z M 42.632812 1.636719 L 12.328125 1.4375 L 12.515625 4.964844 L 12.515625 4.972656 C 12.53125 5.359375 12.230469 5.683594 11.84375 5.699219 L 7.074219 5.902344 C 6.566406 12.410156 6.351562 18.964844 6.417969 25.5625 C 6.488281 32.164062 6.84375 38.832031 7.480469 45.558594 L 43.101562 45.027344 C 42.441406 37.964844 42.097656 30.808594 42.03125 23.574219 C 41.96875 16.316406 42.179688 9 42.632812 1.636719 Z M 42.632812 1.636719 "/>
</g>
</g>
</svg>
