<?xml version="1.0" encoding="UTF-8"?>
<svg xmlns="http://www.w3.org/2000/svg" xmlns:xlink="http://www.w3.org/1999/xlink" width="48pt" height="48pt" viewBox="0 0 48 48" version="1.2">
<defs>
<clipPath id="clip1">
  <path d="M 1.753906 0 L 40 0 L 40 47.019531 L 1.753906 47.019531 Z M 1.753906 0 "/>
</clipPath>
<clipPath id="clip2">
  <path d="M 31 22 L 47.304688 22 L 47.304688 39 L 31 39 Z M 31 22 "/>
</clipPath>
</defs>
<g id="surface1">
<path style=" stroke:none;fill-rule:nonzero;fill:rgb(0%,76.078796%,79.60968%);fill-opacity:1;" d="M 12.640625 8.816406 C 13.410156 8.191406 13.886719 7.273438 13.886719 6.246094 C 13.886719 4.40625 12.417969 2.9375 10.585938 2.9375 C 8.75 2.9375 7.28125 4.40625 7.28125 6.246094 C 7.28125 7.273438 7.757812 8.230469 8.53125 8.816406 C 6.402344 8.890625 4.714844 10.835938 4.714844 13.222656 L 4.714844 16.164062 C 4.714844 16.566406 5.042969 16.898438 5.449219 16.898438 C 5.851562 16.898438 6.183594 16.566406 6.183594 16.164062 L 6.183594 13.222656 C 6.183594 11.609375 7.28125 10.285156 8.675781 10.285156 L 12.53125 10.285156 C 13.886719 10.285156 15.023438 11.609375 15.023438 13.222656 L 15.023438 16.164062 C 15.023438 16.566406 15.355469 16.898438 15.757812 16.898438 C 16.164062 16.898438 16.492188 16.566406 16.492188 16.164062 L 16.492188 13.222656 C 16.457031 10.835938 14.769531 8.890625 12.640625 8.816406 Z M 12.640625 8.816406 "/>
<path style=" stroke:none;fill-rule:nonzero;fill:rgb(0%,76.078796%,79.60968%);fill-opacity:1;" d="M 36.269531 9.550781 L 18.65625 9.550781 C 18.253906 9.550781 17.925781 9.882812 17.925781 10.285156 C 17.925781 10.691406 18.253906 11.019531 18.65625 11.019531 L 36.269531 11.019531 C 36.675781 11.019531 37.003906 10.691406 37.003906 10.285156 C 37.003906 9.882812 36.675781 9.550781 36.269531 9.550781 Z M 36.269531 9.550781 "/>
<path style=" stroke:none;fill-rule:nonzero;fill:rgb(0%,76.078796%,79.60968%);fill-opacity:1;" d="M 36.269531 12.488281 L 27.464844 12.488281 C 27.0625 12.488281 26.730469 12.820312 26.730469 13.222656 C 26.730469 13.628906 27.0625 13.960938 27.464844 13.960938 L 36.269531 13.960938 C 36.675781 13.960938 37.003906 13.628906 37.003906 13.222656 C 37.003906 12.820312 36.675781 12.488281 36.269531 12.488281 Z M 36.269531 12.488281 "/>
<path style=" stroke:none;fill-rule:nonzero;fill:rgb(0%,76.078796%,79.60968%);fill-opacity:1;" d="M 36.269531 15.429688 L 27.464844 15.429688 C 27.0625 15.429688 26.730469 15.757812 26.730469 16.164062 C 26.730469 16.566406 27.0625 16.898438 27.464844 16.898438 L 36.269531 16.898438 C 36.675781 16.898438 37.003906 16.566406 37.003906 16.164062 C 37.003906 15.757812 36.675781 15.429688 36.269531 15.429688 Z M 36.269531 15.429688 "/>
<g clip-path="url(#clip1)" clip-rule="nonzero">
<path style=" stroke:none;fill-rule:nonzero;fill:rgb(0%,76.078796%,79.60968%);fill-opacity:1;" d="M 39.207031 40.40625 C 38.4375 40.40625 37.664062 40.296875 36.929688 40.152344 C 36.96875 40.222656 37.003906 40.335938 37.003906 40.40625 C 37.003906 40.8125 36.675781 41.144531 36.269531 41.144531 L 18.65625 41.144531 C 18.253906 41.144531 17.925781 40.8125 17.925781 40.40625 C 17.925781 40.003906 18.253906 39.671875 18.65625 39.671875 L 35.539062 39.671875 C 33.226562 38.679688 31.355469 36.84375 30.398438 34.492188 C 30.398438 34.492188 30.398438 34.53125 30.398438 34.53125 L 5.449219 34.53125 C 5.042969 34.53125 4.714844 34.199219 4.714844 33.796875 C 4.714844 33.390625 5.042969 33.0625 5.449219 33.0625 L 29.921875 33.0625 C 29.738281 32.363281 29.667969 31.628906 29.667969 30.855469 C 29.667969 30.085938 29.738281 29.351562 29.921875 28.652344 L 5.449219 28.652344 C 5.042969 28.652344 4.714844 28.324219 4.714844 27.917969 C 4.714844 27.515625 5.042969 27.183594 5.449219 27.183594 L 30.398438 27.183594 C 30.398438 27.183594 30.398438 27.21875 30.398438 27.21875 C 30.621094 26.707031 30.878906 26.191406 31.171875 25.714844 L 5.449219 25.714844 C 5.042969 25.714844 4.714844 25.382812 4.714844 24.980469 C 4.714844 24.574219 5.042969 24.246094 5.449219 24.246094 L 32.34375 24.246094 C 34.070312 22.445312 36.527344 21.304688 39.207031 21.304688 C 39.464844 21.304688 39.71875 21.304688 39.941406 21.34375 L 39.941406 2.203125 C 39.941406 0.992188 38.949219 0 37.738281 0 L 3.980469 0 C 2.769531 0 1.777344 0.992188 1.777344 2.203125 L 1.777344 44.816406 C 1.777344 46.027344 2.769531 47.019531 3.980469 47.019531 L 37.738281 47.019531 C 38.949219 47.019531 39.941406 46.027344 39.941406 44.816406 L 39.941406 40.371094 C 39.71875 40.40625 39.464844 40.40625 39.207031 40.40625 Z M 5.449219 30.121094 L 14.253906 30.121094 C 14.660156 30.121094 14.988281 30.453125 14.988281 30.855469 C 14.988281 31.261719 14.660156 31.59375 14.253906 31.59375 L 5.449219 31.59375 C 5.042969 31.59375 4.714844 31.261719 4.714844 30.855469 C 4.714844 30.453125 5.042969 30.121094 5.449219 30.121094 Z M 14.253906 22.777344 L 5.449219 22.777344 C 5.042969 22.777344 4.714844 22.445312 4.714844 22.039062 C 4.714844 21.636719 5.042969 21.304688 5.449219 21.304688 L 14.253906 21.304688 C 14.660156 21.304688 14.988281 21.636719 14.988281 22.039062 C 14.988281 22.445312 14.660156 22.777344 14.253906 22.777344 Z M 3.246094 18.367188 L 3.246094 2.203125 C 3.246094 1.800781 3.578125 1.46875 3.980469 1.46875 L 37.738281 1.46875 C 38.140625 1.46875 38.472656 1.800781 38.472656 2.203125 L 38.472656 18.367188 Z M 4.714844 36.734375 C 4.714844 36.332031 5.042969 36 5.449219 36 L 27.464844 36 C 27.867188 36 28.199219 36.332031 28.199219 36.734375 C 28.199219 37.140625 27.867188 37.46875 27.464844 37.46875 L 5.449219 37.46875 C 5.042969 37.46875 4.714844 37.140625 4.714844 36.734375 Z M 36.269531 44.082031 L 27.464844 44.082031 C 27.0625 44.082031 26.730469 43.75 26.730469 43.347656 C 26.730469 42.941406 27.0625 42.613281 27.464844 42.613281 L 36.269531 42.613281 C 36.675781 42.613281 37.003906 42.941406 37.003906 43.347656 C 37.003906 43.75 36.675781 44.082031 36.269531 44.082031 Z M 36.269531 44.082031 "/>
</g>
<g clip-path="url(#clip2)" clip-rule="nonzero">
<path style=" stroke:none;fill-rule:nonzero;fill:rgb(0%,76.078796%,79.60968%);fill-opacity:1;" d="M 39.832031 22.8125 C 39.609375 22.777344 39.425781 22.777344 39.207031 22.777344 C 34.765625 22.777344 31.132812 26.414062 31.132812 30.855469 C 31.132812 35.300781 34.765625 38.9375 39.207031 38.9375 C 39.425781 38.9375 39.648438 38.9375 39.832031 38.902344 C 43.976562 38.570312 47.277344 35.082031 47.277344 30.855469 C 47.277344 26.632812 43.976562 23.144531 39.832031 22.8125 Z M 42.214844 29.976562 L 38.4375 32.914062 C 38.289062 33.023438 38.140625 33.0625 37.996094 33.0625 C 37.777344 33.0625 37.59375 32.988281 37.445312 32.804688 L 36.085938 31.1875 C 35.832031 30.894531 35.867188 30.417969 36.199219 30.160156 C 36.492188 29.902344 36.96875 29.9375 37.226562 30.269531 L 38.140625 31.371094 L 41.371094 28.875 C 41.703125 28.617188 42.140625 28.691406 42.398438 29.019531 C 42.617188 29.242188 42.546875 29.71875 42.214844 29.976562 Z M 42.214844 29.976562 "/>
</g>
</g>
</svg>
