<?xml version="1.0" encoding="UTF-8"?>
<svg xmlns="http://www.w3.org/2000/svg" xmlns:xlink="http://www.w3.org/1999/xlink" width="48pt" height="48pt" viewBox="0 0 48 48" version="1.2">
<defs>
<clipPath id="clip1">
  <path d="M 0.488281 27 L 14 27 L 14 47 L 0.488281 47 Z M 0.488281 27 "/>
</clipPath>
<clipPath id="clip2">
  <path d="M 33 0 L 47.507812 0 L 47.507812 15 L 33 15 Z M 33 0 "/>
</clipPath>
</defs>
<g id="surface1">
<g clip-path="url(#clip1)" clip-rule="nonzero">
<path style=" stroke:none;fill-rule:nonzero;fill:rgb(0%,76.078796%,79.60968%);fill-opacity:1;" d="M 0.488281 41.503906 L 0.488281 46.199219 C 0.488281 46.628906 0.839844 46.980469 1.273438 46.980469 L 12.226562 46.980469 C 12.65625 46.980469 13.007812 46.628906 13.007812 46.199219 L 13.007812 41.503906 C 13.007812 39.046875 11.582031 36.921875 9.515625 35.898438 C 10.683594 35.042969 11.441406 33.667969 11.441406 32.117188 C 11.441406 29.527344 9.335938 27.421875 6.75 27.421875 C 4.160156 27.421875 2.054688 29.527344 2.054688 32.117188 C 2.054688 33.667969 2.816406 35.042969 3.980469 35.898438 C 1.917969 36.921875 0.488281 39.046875 0.488281 41.503906 Z M 6.75 36.808594 C 7.011719 36.808594 7.265625 36.835938 7.515625 36.878906 C 7.480469 37.277344 7.15625 37.59375 6.75 37.59375 C 6.34375 37.59375 6.015625 37.277344 5.980469 36.878906 C 6.230469 36.835938 6.488281 36.808594 6.75 36.808594 Z M 6.75 28.988281 C 7.757812 28.988281 8.648438 29.476562 9.222656 30.21875 C 8.4375 29.925781 7.605469 29.769531 6.75 29.769531 C 5.890625 29.769531 5.058594 29.925781 4.277344 30.21875 C 4.847656 29.476562 5.738281 28.988281 6.75 28.988281 Z M 3.640625 32.324219 C 4.5625 31.6875 5.625 31.332031 6.75 31.332031 C 7.871094 31.332031 8.933594 31.6875 9.855469 32.324219 C 9.746094 33.953125 8.402344 35.246094 6.75 35.246094 C 5.09375 35.246094 3.75 33.953125 3.640625 32.324219 Z M 4.484375 37.394531 C 4.746094 38.40625 5.65625 39.15625 6.75 39.15625 C 7.839844 39.15625 8.75 38.40625 9.011719 37.394531 C 10.460938 38.195312 11.441406 39.738281 11.441406 41.503906 L 11.441406 45.417969 L 2.054688 45.417969 L 2.054688 41.503906 C 2.054688 39.738281 3.039062 38.195312 4.484375 37.394531 Z M 4.484375 37.394531 "/>
</g>
<path style=" stroke:none;fill-rule:nonzero;fill:rgb(0%,76.078796%,79.60968%);fill-opacity:1;" d="M 41.957031 29.769531 L 41.957031 23.511719 C 41.957031 20.636719 40.222656 18.164062 37.75 17.070312 C 38.875 16.210938 39.609375 14.859375 39.609375 13.339844 C 39.609375 10.75 37.503906 8.644531 34.914062 8.644531 C 32.324219 8.644531 30.21875 10.75 30.21875 13.339844 C 30.21875 14.859375 30.949219 16.210938 32.074219 17.070312 C 31.289062 17.417969 30.5625 17.90625 29.929688 18.53125 C 28.601562 19.867188 27.871094 21.636719 27.871094 23.511719 L 27.871094 29.769531 C 27.871094 30.199219 28.222656 30.550781 28.65625 30.550781 L 41.171875 30.550781 C 41.605469 30.550781 41.957031 30.199219 41.957031 29.769531 Z M 34.914062 19.355469 L 35.644531 21.1875 L 34.914062 23.382812 L 34.183594 21.1875 Z M 34.914062 10.210938 C 35.925781 10.210938 36.8125 10.699219 37.386719 11.445312 C 36.605469 11.148438 35.773438 10.992188 34.914062 10.992188 C 34.054688 10.992188 33.222656 11.148438 32.441406 11.445312 C 33.015625 10.699219 33.902344 10.210938 34.914062 10.210938 Z M 31.804688 13.550781 C 32.726562 12.910156 33.789062 12.558594 34.914062 12.558594 C 36.039062 12.558594 37.101562 12.910156 38.023438 13.550781 C 37.910156 15.175781 36.566406 16.46875 34.914062 16.46875 C 33.261719 16.46875 31.914062 15.175781 31.804688 13.550781 Z M 40.390625 28.988281 L 29.4375 28.988281 L 29.4375 23.511719 C 29.4375 22.050781 30.007812 20.675781 31.035156 19.636719 C 31.78125 18.894531 32.703125 18.398438 33.703125 18.171875 L 32.621094 20.871094 C 32.554688 21.042969 32.546875 21.234375 32.605469 21.410156 L 34.171875 26.105469 C 34.277344 26.425781 34.578125 26.640625 34.914062 26.640625 C 35.25 26.640625 35.550781 26.425781 35.65625 26.105469 L 37.222656 21.410156 C 37.28125 21.234375 37.273438 21.042969 37.207031 20.871094 L 36.125 18.171875 C 38.5625 18.726562 40.390625 20.90625 40.390625 23.511719 Z M 40.390625 28.988281 "/>
<g clip-path="url(#clip2)" clip-rule="nonzero">
<path style=" stroke:none;fill-rule:nonzero;fill:rgb(0%,76.078796%,79.60968%);fill-opacity:1;" d="M 47.390625 5.351562 C 47.296875 5.074219 47.058594 4.871094 46.765625 4.828125 L 42.855469 4.234375 L 41.097656 0.488281 C 40.96875 0.214844 40.695312 0.0390625 40.390625 0.0390625 C 40.085938 0.0390625 39.8125 0.214844 39.683594 0.488281 L 37.925781 4.234375 L 34.015625 4.828125 C 33.722656 4.871094 33.484375 5.074219 33.390625 5.351562 C 33.296875 5.632812 33.367188 5.9375 33.570312 6.148438 L 35.136719 7.75 L 36.257812 6.660156 L 35.757812 6.144531 L 38.574219 5.71875 C 38.832031 5.679688 39.054688 5.511719 39.167969 5.277344 L 40.390625 2.664062 L 41.613281 5.277344 C 41.726562 5.511719 41.949219 5.679688 42.207031 5.71875 L 45.027344 6.144531 L 42.960938 8.261719 C 42.785156 8.441406 42.707031 8.6875 42.746094 8.933594 L 43.226562 11.875 L 40.769531 10.519531 L 40.011719 11.886719 L 43.875 14.023438 C 43.996094 14.089844 44.125 14.121094 44.253906 14.121094 C 44.414062 14.121094 44.570312 14.074219 44.707031 13.980469 C 44.949219 13.804688 45.078125 13.511719 45.027344 13.214844 L 44.355469 9.074219 L 47.210938 6.148438 C 47.414062 5.9375 47.484375 5.628906 47.390625 5.351562 Z M 47.390625 5.351562 "/>
</g>
<path style=" stroke:none;fill-rule:nonzero;fill:rgb(0%,76.078796%,79.60968%);fill-opacity:1;" d="M 21.613281 3.167969 L 5.183594 3.167969 C 4.320312 3.167969 3.621094 3.871094 3.621094 4.734375 L 3.621094 18.035156 C 3.621094 18.898438 4.320312 19.597656 5.183594 19.597656 L 21.613281 19.597656 C 22.476562 19.597656 23.179688 18.898438 23.179688 18.035156 L 23.179688 13.59375 L 27.65625 14.875 C 28 14.972656 28.367188 14.824219 28.546875 14.519531 C 28.726562 14.210938 28.679688 13.820312 28.425781 13.570312 L 23.179688 8.320312 L 23.179688 4.734375 C 23.179688 3.871094 22.476562 3.167969 21.613281 3.167969 Z M 25.183594 12.539062 L 23.609375 12.089844 C 23.128906 11.953125 22.632812 12.046875 22.238281 12.34375 C 21.839844 12.644531 21.613281 13.097656 21.613281 13.59375 L 21.613281 18.035156 L 5.183594 18.035156 L 5.183594 4.734375 L 21.613281 4.734375 L 21.613281 8.320312 C 21.613281 8.738281 21.777344 9.132812 22.070312 9.425781 Z M 25.183594 12.539062 "/>
<path style=" stroke:none;fill-rule:nonzero;fill:rgb(0%,76.078796%,79.60968%);fill-opacity:1;" d="M 19.265625 44.632812 L 29.4375 44.632812 C 30.300781 44.632812 31.003906 43.933594 31.003906 43.070312 L 31.003906 34.464844 C 31.003906 33.601562 30.300781 32.898438 29.4375 32.898438 L 19.265625 32.898438 C 18.402344 32.898438 17.703125 33.601562 17.703125 34.464844 L 17.703125 36.667969 L 13.917969 36.039062 C 13.570312 35.980469 13.226562 36.164062 13.078125 36.484375 C 12.933594 36.804688 13.019531 37.183594 13.289062 37.410156 L 17.703125 41.085938 L 17.703125 43.070312 C 17.703125 43.933594 18.402344 44.632812 19.265625 44.632812 Z M 16.507812 38.058594 L 18.355469 38.363281 C 18.578125 38.402344 18.8125 38.339844 18.988281 38.191406 C 19.164062 38.042969 19.265625 37.824219 19.265625 37.59375 L 19.265625 34.464844 L 29.4375 34.464844 L 29.4375 43.070312 L 19.265625 43.070312 L 19.265625 40.722656 C 19.265625 40.488281 19.164062 40.269531 18.984375 40.121094 Z M 16.507812 38.058594 "/>
<path style=" stroke:none;fill-rule:nonzero;fill:rgb(0%,76.078796%,79.60968%);fill-opacity:1;" d="M 20.832031 36.027344 L 22.394531 36.027344 L 22.394531 37.59375 L 20.832031 37.59375 Z M 20.832031 36.027344 "/>
<path style=" stroke:none;fill-rule:nonzero;fill:rgb(0%,76.078796%,79.60968%);fill-opacity:1;" d="M 23.960938 36.027344 L 27.871094 36.027344 L 27.871094 37.59375 L 23.960938 37.59375 Z M 23.960938 36.027344 "/>
<path style=" stroke:none;fill-rule:nonzero;fill:rgb(0%,76.078796%,79.60968%);fill-opacity:1;" d="M 20.832031 39.941406 L 22.394531 39.941406 L 22.394531 41.503906 L 20.832031 41.503906 Z M 20.832031 39.941406 "/>
<path style=" stroke:none;fill-rule:nonzero;fill:rgb(0%,76.078796%,79.60968%);fill-opacity:1;" d="M 23.960938 39.941406 L 27.871094 39.941406 L 27.871094 41.503906 L 23.960938 41.503906 Z M 23.960938 39.941406 "/>
<path style=" stroke:none;fill-rule:nonzero;fill:rgb(0%,76.078796%,79.60968%);fill-opacity:1;" d="M 11.414062 13.765625 L 8.867188 11.222656 L 7.761719 12.328125 L 10.890625 15.457031 C 11.035156 15.605469 11.234375 15.6875 11.441406 15.6875 C 11.449219 15.6875 11.457031 15.6875 11.464844 15.6875 C 11.675781 15.679688 11.878906 15.589844 12.023438 15.425781 L 19.066406 7.605469 L 17.902344 6.558594 Z M 11.414062 13.765625 "/>
</g>
</svg>
