<?xml version="1.0" encoding="UTF-8"?>
<svg xmlns="http://www.w3.org/2000/svg" xmlns:xlink="http://www.w3.org/1999/xlink" width="48pt" height="48pt" viewBox="0 0 48 48" version="1.2">
<defs>
<clipPath id="clip1">
  <path d="M 9 29 L 42 29 L 42 47.019531 L 9 47.019531 Z M 9 29 "/>
</clipPath>
<clipPath id="clip2">
  <path d="M 32 19 L 47.507812 19 L 47.507812 29 L 32 29 Z M 32 19 "/>
</clipPath>
<clipPath id="clip3">
  <path d="M 0.488281 37 L 17 37 L 17 47.019531 L 0.488281 47.019531 Z M 0.488281 37 "/>
</clipPath>
</defs>
<g id="surface1">
<path style=" stroke:none;fill-rule:nonzero;fill:rgb(0%,76.078796%,79.60968%);fill-opacity:1;" d="M 24 3.917969 C 23.570312 3.917969 23.214844 4.269531 23.214844 4.703125 C 23.214844 5.132812 23.570312 5.484375 24 5.484375 C 24.429688 5.484375 24.785156 5.132812 24.785156 4.703125 C 24.785156 4.269531 24.429688 3.917969 24 3.917969 Z M 24 7.054688 C 22.703125 7.054688 21.648438 6 21.648438 4.703125 C 21.648438 3.402344 22.703125 2.351562 24 2.351562 C 25.296875 2.351562 26.351562 3.402344 26.351562 4.703125 C 26.351562 6 25.296875 7.054688 24 7.054688 "/>
<path style=" stroke:none;fill-rule:nonzero;fill:rgb(0%,76.078796%,79.60968%);fill-opacity:1;" d="M 18 4.703125 C 18.957031 5.695312 21.320312 7.835938 24 7.835938 C 26.679688 7.835938 29.042969 5.695312 30 4.703125 C 29.042969 3.710938 26.679688 1.566406 24 1.566406 C 21.320312 1.566406 18.957031 3.710938 18 4.703125 Z M 24 9.402344 C 19.777344 9.402344 16.476562 5.367188 16.335938 5.195312 C 16.105469 4.90625 16.105469 4.496094 16.335938 4.210938 C 16.476562 4.039062 19.777344 0 24 0 C 28.222656 0 31.523438 4.039062 31.664062 4.210938 C 31.894531 4.496094 31.894531 4.90625 31.664062 5.195312 C 31.523438 5.367188 28.222656 9.402344 24 9.402344 "/>
<path style=" stroke:none;fill-rule:nonzero;fill:rgb(0%,76.078796%,79.60968%);fill-opacity:1;" d="M 11.460938 13.324219 L 9.894531 13.324219 L 9.894531 14.890625 L 11.460938 14.890625 L 11.460938 13.324219 "/>
<path style=" stroke:none;fill-rule:nonzero;fill:rgb(0%,76.078796%,79.60968%);fill-opacity:1;" d="M 14.597656 13.324219 L 13.027344 13.324219 L 13.027344 14.890625 L 14.597656 14.890625 L 14.597656 13.324219 "/>
<path style=" stroke:none;fill-rule:nonzero;fill:rgb(0%,76.078796%,79.60968%);fill-opacity:1;" d="M 17.730469 13.324219 L 16.164062 13.324219 L 16.164062 14.890625 L 17.730469 14.890625 L 17.730469 13.324219 "/>
<path style=" stroke:none;fill-rule:nonzero;fill:rgb(0%,76.078796%,79.60968%);fill-opacity:1;" d="M 9.109375 12.539062 L 38.890625 12.539062 C 39.320312 12.539062 39.671875 12.890625 39.671875 13.324219 L 39.671875 15.671875 L 8.328125 15.671875 L 8.328125 13.324219 C 8.328125 12.890625 8.679688 12.539062 9.109375 12.539062 Z M 7.542969 36.832031 C 7.972656 36.832031 8.328125 36.480469 8.328125 36.050781 L 8.328125 17.242188 L 39.671875 17.242188 L 39.671875 18.023438 C 39.671875 18.457031 40.027344 18.808594 40.457031 18.808594 C 40.890625 18.808594 41.242188 18.457031 41.242188 18.023438 L 41.242188 13.324219 C 41.242188 12.023438 40.1875 10.972656 38.890625 10.972656 L 9.109375 10.972656 C 7.8125 10.972656 6.757812 12.023438 6.757812 13.324219 L 6.757812 36.050781 C 6.757812 36.480469 7.109375 36.832031 7.542969 36.832031 "/>
<g clip-path="url(#clip1)" clip-rule="nonzero">
<path style=" stroke:none;fill-rule:nonzero;fill:rgb(0%,76.078796%,79.60968%);fill-opacity:1;" d="M 40.457031 29.78125 C 40.027344 29.78125 39.671875 30.132812 39.671875 30.5625 L 39.671875 44.667969 C 39.671875 45.101562 39.320312 45.453125 38.890625 45.453125 L 10.675781 45.453125 C 10.246094 45.453125 9.894531 45.804688 9.894531 46.238281 C 9.894531 46.667969 10.246094 47.019531 10.675781 47.019531 L 38.890625 47.019531 C 40.1875 47.019531 41.242188 45.96875 41.242188 44.667969 L 41.242188 30.5625 C 41.242188 30.132812 40.890625 29.78125 40.457031 29.78125 "/>
</g>
<path style=" stroke:none;fill-rule:nonzero;fill:rgb(0%,76.078796%,79.60968%);fill-opacity:1;" d="M 11.460938 21.941406 L 11.460938 39.183594 C 11.460938 39.617188 11.8125 39.96875 12.246094 39.96875 C 12.675781 39.96875 13.027344 39.617188 13.027344 39.183594 L 13.027344 21.941406 C 13.027344 21.511719 12.675781 21.160156 12.246094 21.160156 C 11.8125 21.160156 11.460938 21.511719 11.460938 21.941406 "/>
<path style=" stroke:none;fill-rule:nonzero;fill:rgb(0%,76.078796%,79.60968%);fill-opacity:1;" d="M 18.382812 19.941406 C 18.144531 19.578125 17.65625 19.480469 17.296875 19.722656 L 14.945312 21.289062 C 14.726562 21.433594 14.597656 21.679688 14.597656 21.941406 C 14.597656 22.207031 14.726562 22.449219 14.945312 22.59375 L 17.296875 24.164062 C 17.429688 24.25 17.582031 24.292969 17.730469 24.292969 C 17.984375 24.292969 18.234375 24.171875 18.382812 23.945312 C 18.625 23.582031 18.527344 23.097656 18.164062 22.859375 L 16.789062 21.941406 L 18.164062 21.027344 C 18.527344 20.789062 18.625 20.300781 18.382812 19.941406 "/>
<path style=" stroke:none;fill-rule:nonzero;fill:rgb(0%,76.078796%,79.60968%);fill-opacity:1;" d="M 23.347656 23.945312 C 23.496094 24.171875 23.746094 24.292969 24 24.292969 C 24.148438 24.292969 24.300781 24.25 24.433594 24.164062 L 26.785156 22.59375 C 27.003906 22.449219 27.132812 22.207031 27.132812 21.941406 C 27.132812 21.679688 27.003906 21.433594 26.785156 21.289062 L 24.433594 19.722656 C 24.074219 19.480469 23.585938 19.578125 23.347656 19.941406 C 23.105469 20.300781 23.203125 20.789062 23.566406 21.027344 L 24.941406 21.941406 L 23.566406 22.859375 C 23.203125 23.097656 23.105469 23.582031 23.347656 23.945312 "/>
<path style=" stroke:none;fill-rule:nonzero;fill:rgb(0%,76.078796%,79.60968%);fill-opacity:1;" d="M 21.898438 18.847656 C 21.484375 18.710938 21.042969 18.933594 20.90625 19.34375 L 19.335938 24.046875 C 19.203125 24.457031 19.421875 24.898438 19.832031 25.039062 C 19.917969 25.066406 20 25.078125 20.082031 25.078125 C 20.410156 25.078125 20.714844 24.871094 20.824219 24.542969 L 22.394531 19.839844 C 22.527344 19.429688 22.308594 18.984375 21.898438 18.847656 "/>
<path style=" stroke:none;fill-rule:nonzero;fill:rgb(0%,76.078796%,79.60968%);fill-opacity:1;" d="M 15.378906 28.210938 L 20.082031 28.210938 L 20.082031 26.644531 L 15.378906 26.644531 L 15.378906 28.210938 "/>
<path style=" stroke:none;fill-rule:nonzero;fill:rgb(0%,76.078796%,79.60968%);fill-opacity:1;" d="M 21.648438 28.210938 L 23.214844 28.210938 L 23.214844 26.644531 L 21.648438 26.644531 L 21.648438 28.210938 "/>
<path style=" stroke:none;fill-rule:nonzero;fill:rgb(0%,76.078796%,79.60968%);fill-opacity:1;" d="M 17.730469 31.347656 L 27.132812 31.347656 L 27.132812 29.78125 L 17.730469 29.78125 L 17.730469 31.347656 "/>
<path style=" stroke:none;fill-rule:nonzero;fill:rgb(0%,76.078796%,79.60968%);fill-opacity:1;" d="M 31.835938 31.347656 L 34.972656 31.347656 L 34.972656 29.78125 L 31.835938 29.78125 L 31.835938 31.347656 "/>
<path style=" stroke:none;fill-rule:nonzero;fill:rgb(0%,76.078796%,79.60968%);fill-opacity:1;" d="M 17.730469 34.480469 L 19.296875 34.480469 L 19.296875 32.914062 L 17.730469 32.914062 L 17.730469 34.480469 "/>
<path style=" stroke:none;fill-rule:nonzero;fill:rgb(0%,76.078796%,79.60968%);fill-opacity:1;" d="M 30.269531 32.914062 L 20.867188 32.914062 L 20.867188 34.480469 L 30.269531 34.480469 L 30.269531 32.914062 "/>
<path style=" stroke:none;fill-rule:nonzero;fill:rgb(0%,76.078796%,79.60968%);fill-opacity:1;" d="M 34.972656 32.914062 L 31.835938 32.914062 L 31.835938 34.480469 L 34.972656 34.480469 L 34.972656 32.914062 "/>
<path style=" stroke:none;fill-rule:nonzero;fill:rgb(0%,76.078796%,79.60968%);fill-opacity:1;" d="M 20.082031 36.050781 L 15.378906 36.050781 L 15.378906 37.617188 L 20.082031 37.617188 L 20.082031 36.050781 "/>
<path style=" stroke:none;fill-rule:nonzero;fill:rgb(0%,76.078796%,79.60968%);fill-opacity:1;" d="M 23.214844 37.617188 L 23.214844 36.050781 L 21.648438 36.050781 L 21.648438 37.617188 L 23.214844 37.617188 "/>
<path style=" stroke:none;fill-rule:nonzero;fill:rgb(0%,76.078796%,79.60968%);fill-opacity:1;" d="M 30.269531 29.78125 L 28.703125 29.78125 L 28.703125 31.347656 L 30.269531 31.347656 L 30.269531 29.78125 "/>
<g clip-path="url(#clip2)" clip-rule="nonzero">
<path style=" stroke:none;fill-rule:nonzero;fill:rgb(0%,76.078796%,79.60968%);fill-opacity:1;" d="M 42.808594 27.429688 C 41.078125 27.429688 39.671875 26.023438 39.671875 24.292969 C 39.671875 22.5625 41.078125 21.160156 42.808594 21.160156 C 44.539062 21.160156 45.941406 22.5625 45.941406 24.292969 C 45.941406 26.023438 44.539062 27.429688 42.808594 27.429688 Z M 42.808594 19.59375 C 40.480469 19.59375 38.554688 21.289062 38.175781 23.511719 L 34.972656 23.511719 C 33.671875 23.511719 32.621094 24.5625 32.621094 25.859375 L 32.621094 28.210938 L 34.1875 28.210938 L 34.1875 25.859375 C 34.1875 25.429688 34.539062 25.078125 34.972656 25.078125 L 38.175781 25.078125 C 38.554688 27.296875 40.480469 28.996094 42.808594 28.996094 C 45.402344 28.996094 47.511719 26.886719 47.511719 24.292969 C 47.511719 21.699219 45.402344 19.59375 42.808594 19.59375 "/>
</g>
<path style=" stroke:none;fill-rule:nonzero;fill:rgb(0%,76.078796%,79.60968%);fill-opacity:1;" d="M 42.023438 23.511719 L 43.59375 23.511719 L 43.59375 21.941406 L 42.023438 21.941406 L 42.023438 23.511719 "/>
<path style=" stroke:none;fill-rule:nonzero;fill:rgb(0%,76.078796%,79.60968%);fill-opacity:1;" d="M 42.023438 26.644531 L 43.59375 26.644531 L 43.59375 24.292969 L 42.023438 24.292969 L 42.023438 26.644531 "/>
<path style=" stroke:none;fill-rule:nonzero;fill:rgb(0%,76.078796%,79.60968%);fill-opacity:1;" d="M 4.40625 41.535156 L 5.976562 41.535156 L 5.976562 39.96875 L 4.40625 39.96875 L 4.40625 41.535156 "/>
<path style=" stroke:none;fill-rule:nonzero;fill:rgb(0%,76.078796%,79.60968%);fill-opacity:1;" d="M 4.40625 44.667969 L 5.976562 44.667969 L 5.976562 42.320312 L 4.40625 42.320312 L 4.40625 44.667969 "/>
<path style=" stroke:none;fill-rule:nonzero;fill:rgb(0%,76.078796%,79.60968%);fill-opacity:1;" d="M 20.082031 40.75 L 20.082031 39.183594 L 18.515625 39.183594 L 18.515625 40.75 L 20.082031 40.75 "/>
<path style=" stroke:none;fill-rule:nonzero;fill:rgb(0%,76.078796%,79.60968%);fill-opacity:1;" d="M 31.054688 39.183594 L 21.648438 39.183594 L 21.648438 40.75 L 31.054688 40.75 L 31.054688 39.183594 "/>
<path style=" stroke:none;fill-rule:nonzero;fill:rgb(0%,76.078796%,79.60968%);fill-opacity:1;" d="M 35.753906 39.183594 L 32.621094 39.183594 L 32.621094 40.75 L 35.753906 40.75 L 35.753906 39.183594 "/>
<g clip-path="url(#clip3)" clip-rule="nonzero">
<path style=" stroke:none;fill-rule:nonzero;fill:rgb(0%,76.078796%,79.60968%);fill-opacity:1;" d="M 5.191406 45.453125 C 3.460938 45.453125 2.058594 44.046875 2.058594 42.320312 C 2.058594 40.589844 3.460938 39.183594 5.191406 39.183594 C 6.921875 39.183594 8.328125 40.589844 8.328125 42.320312 C 8.328125 44.046875 6.921875 45.453125 5.191406 45.453125 Z M 16.945312 43.101562 L 16.945312 41.535156 L 9.824219 41.535156 C 9.445312 39.316406 7.519531 37.617188 5.191406 37.617188 C 2.597656 37.617188 0.488281 39.726562 0.488281 42.320312 C 0.488281 44.910156 2.597656 47.019531 5.191406 47.019531 C 7.519531 47.019531 9.445312 45.320312 9.824219 43.101562 L 16.945312 43.101562 "/>
</g>
<path style=" stroke:none;fill-rule:nonzero;fill:rgb(0%,76.078796%,79.60968%);fill-opacity:1;" d="M 21.648438 42.320312 L 18.515625 42.320312 L 18.515625 43.886719 L 21.648438 43.886719 L 21.648438 42.320312 "/>
<path style=" stroke:none;fill-rule:nonzero;fill:rgb(0%,76.078796%,79.60968%);fill-opacity:1;" d="M 31.054688 43.886719 L 31.054688 42.320312 L 23.214844 42.320312 L 23.214844 43.886719 L 31.054688 43.886719 "/>
</g>
</svg>
