<?xml version="1.0" encoding="UTF-8"?>
<svg xmlns="http://www.w3.org/2000/svg" xmlns:xlink="http://www.w3.org/1999/xlink" width="48pt" height="48pt" viewBox="0 0 48 48" version="1.2">
<defs>
<clipPath id="clip1">
  <path d="M 4.605469 0 L 42.808594 0 L 42.808594 47.019531 L 4.605469 47.019531 Z M 4.605469 0 "/>
</clipPath>
</defs>
<g id="surface1">
<path style=" stroke:none;fill-rule:nonzero;fill:rgb(0%,76.078796%,79.60968%);fill-opacity:1;" d="M 33.992188 37.46875 L 21.097656 37.46875 L 32.195312 28.425781 C 33.445312 27.410156 33.617188 25.582031 32.578125 24.355469 L 30.886719 22.351562 C 29.847656 21.121094 27.988281 20.953125 26.738281 21.972656 L 15.386719 31.21875 C 15.386719 31.222656 15.386719 31.222656 15.382812 31.222656 C 15.316406 31.277344 15.261719 31.351562 15.21875 31.425781 C 15.207031 31.445312 15.195312 31.464844 15.183594 31.484375 C 15.175781 31.503906 15.164062 31.519531 15.15625 31.535156 L 12.734375 37.921875 C 12.71875 37.957031 12.714844 37.996094 12.707031 38.03125 C 12.703125 38.046875 12.703125 38.058594 12.699219 38.070312 C 12.695312 38.101562 12.691406 38.128906 12.691406 38.15625 C 12.691406 38.171875 12.6875 38.1875 12.6875 38.203125 C 12.6875 38.597656 12.992188 38.914062 13.378906 38.933594 C 13.382812 38.933594 13.382812 38.933594 13.386719 38.933594 C 13.398438 38.9375 13.410156 38.9375 13.421875 38.9375 L 33.992188 38.9375 C 34.398438 38.9375 34.726562 38.609375 34.726562 38.203125 C 34.726562 37.796875 34.398438 37.46875 33.992188 37.46875 Z M 27.71875 23.132812 C 28.316406 22.644531 29.207031 22.726562 29.703125 23.3125 L 31.398438 25.316406 C 31.894531 25.90625 31.808594 26.777344 31.210938 27.265625 L 30.597656 27.765625 L 27.101562 23.632812 Z M 25.921875 24.597656 L 29.417969 28.730469 L 20.453125 36.03125 L 16.957031 31.898438 Z M 16.132812 33.285156 L 18.851562 36.5 L 14.640625 37.214844 Z M 16.132812 33.285156 "/>
<path style=" stroke:none;fill-rule:nonzero;fill:rgb(0%,76.078796%,79.60968%);fill-opacity:1;" d="M 33.992188 8.082031 L 13.421875 8.082031 C 13.015625 8.082031 12.6875 7.753906 12.6875 7.347656 C 12.6875 6.941406 13.015625 6.613281 13.421875 6.613281 L 33.992188 6.613281 C 34.398438 6.613281 34.726562 6.941406 34.726562 7.347656 C 34.726562 7.753906 34.398438 8.082031 33.992188 8.082031 Z M 33.992188 8.082031 "/>
<path style=" stroke:none;fill-rule:nonzero;fill:rgb(0%,76.078796%,79.60968%);fill-opacity:1;" d="M 33.992188 11.019531 L 13.421875 11.019531 C 13.015625 11.019531 12.6875 10.691406 12.6875 10.285156 C 12.6875 9.878906 13.015625 9.550781 13.421875 9.550781 L 33.992188 9.550781 C 34.398438 9.550781 34.726562 9.878906 34.726562 10.285156 C 34.726562 10.691406 34.398438 11.019531 33.992188 11.019531 Z M 33.992188 11.019531 "/>
<path style=" stroke:none;fill-rule:nonzero;fill:rgb(0%,76.078796%,79.60968%);fill-opacity:1;" d="M 33.992188 13.960938 L 13.421875 13.960938 C 13.015625 13.960938 12.6875 13.628906 12.6875 13.222656 C 12.6875 12.820312 13.015625 12.488281 13.421875 12.488281 L 33.992188 12.488281 C 34.398438 12.488281 34.726562 12.820312 34.726562 13.222656 C 34.726562 13.628906 34.398438 13.960938 33.992188 13.960938 Z M 33.992188 13.960938 "/>
<path style=" stroke:none;fill-rule:nonzero;fill:rgb(0%,76.078796%,79.60968%);fill-opacity:1;" d="M 33.992188 16.898438 L 13.421875 16.898438 C 13.015625 16.898438 12.6875 16.570312 12.6875 16.164062 C 12.6875 15.757812 13.015625 15.429688 13.421875 15.429688 L 33.992188 15.429688 C 34.398438 15.429688 34.726562 15.757812 34.726562 16.164062 C 34.726562 16.570312 34.398438 16.898438 33.992188 16.898438 Z M 33.992188 16.898438 "/>
<path style=" stroke:none;fill-rule:nonzero;fill:rgb(0%,76.078796%,79.60968%);fill-opacity:1;" d="M 33.992188 19.835938 L 13.421875 19.835938 C 13.015625 19.835938 12.6875 19.507812 12.6875 19.101562 C 12.6875 18.695312 13.015625 18.367188 13.421875 18.367188 L 33.992188 18.367188 C 34.398438 18.367188 34.726562 18.695312 34.726562 19.101562 C 34.726562 19.507812 34.398438 19.835938 33.992188 19.835938 Z M 33.992188 19.835938 "/>
<g clip-path="url(#clip1)" clip-rule="nonzero">
<path style=" stroke:none;fill-rule:nonzero;fill:rgb(0%,76.078796%,79.60968%);fill-opacity:1;" d="M 39.871094 1.46875 C 40.679688 1.46875 41.339844 2.128906 41.339844 2.9375 L 41.339844 44.082031 C 41.339844 44.890625 40.679688 45.550781 39.871094 45.550781 L 7.542969 45.550781 C 6.734375 45.550781 6.074219 44.890625 6.074219 44.082031 L 6.074219 2.9375 C 6.074219 2.128906 6.734375 1.46875 7.542969 1.46875 L 39.871094 1.46875 M 39.871094 0 L 7.542969 0 C 5.917969 0 4.605469 1.316406 4.605469 2.9375 L 4.605469 44.082031 C 4.605469 45.703125 5.917969 47.019531 7.542969 47.019531 L 39.871094 47.019531 C 41.492188 47.019531 42.808594 45.703125 42.808594 44.082031 L 42.808594 2.9375 C 42.808594 1.316406 41.492188 0 39.871094 0 Z M 39.871094 0 "/>
</g>
</g>
</svg>
